<svg xmlns="http://www.w3.org/2000/svg" viewBox="0 0 24 24"><path fill="#fff" fill-rule="evenodd" d="M8.281 5.186 7.087 3.392a1.008 1.008 0 0 1 1.678-1.118l1.767 2.652q.067.102.107.211.717-.01 1.35-.01h.13q.438 0 .917.005.046-.123.126-.235l1.907-2.653a1.008 1.008 0 0 1 1.637 1.177l-1.26 1.755q1.266.03 2.73.083c1.797.063 3.2 1.47 3.455 3.25.085.596.127 2.136.157 3.268.01.333.017.631.025.86a.688.688 0 0 1-1.374.047c-.008-.23-.016-.536-.025-.88-.028-1.091-.066-2.554-.144-3.1-.16-1.12-1.01-2.031-2.142-2.071q-3.668-.13-6.074-.131a181 181 0 0 0-6.074.131 2.34 2.34 0 0 0-2.23 2.005q-.228 1.589-.228 3.946 0 2.828.329 4.847a2.34 2.34 0 0 0 2.192 1.96c1.875.092 3.262.138 5.43.138a.687.687 0 1 1 0 1.375c-2.19 0-3.599-.047-5.498-.14a3.71 3.71 0 0 1-3.481-3.112q-.348-2.137-.347-5.068 0-2.446.242-4.141a3.71 3.71 0 0 1 3.544-3.184q1.246-.045 2.35-.073zm4.23 4.417h-1.32v4.63h2.221v.848h-2.618v1.078h2.618l.003.678c.36.026.714.162 1.01.407h.11v-1.085h2.694V15.08h-2.695v-.847H16.8v-4.63h-1.276a8.6 8.6 0 0 0 .748-1.42L15.183 7.8a14 14 0 0 1-.814 1.804h-1.518l.693-.308a9 9 0 0 0-.814-1.408l-1.045.352c.297.396.572.847.825 1.364zm-4.18 3.564.153-1.485h1.98V8.294h-3.2v.979H9.33v1.43H7.472l-.308 3.454h2.277c0 1.166-.044 1.925-.12 2.277-.078.352-.386.528-.936.528-.308 0-.616-.022-.902-.055l.297 1.067.062.004c.285.02.552.04.818.04 1.001-.066 1.562-.418 1.694-1.056.11-.638.176-1.903.176-3.795zm7.457.11v-.858h-1.254v.858zm-2.376-.858v.858h-1.199v-.858zm-1.199-.946h1.2v-.902h-1.2zm2.321 0v-.902h1.254v.902z" clip-rule="evenodd"/><path fill="#f69" d="M21.62 14.87a.75.75 0 0 1 1.183.915l-.068.088-5.804 6.498a.75.75 0 0 1-1.016.093l-.08-.071-2.956-3.035a.75.75 0 0 1 .992-1.12l.083.074 2.397 2.46z"/></svg>