<svg width="22" height="22" xmlns="http://www.w3.org/2000/svg" viewBox="0 0 22 22"><path d="m11 15-2.3 2h4.5Z" style="fill:#fff;stroke:#fff;stroke-linejoin:round;stroke-linecap:round"/><path d="M6.543 15.955s-.898.028-1.539.014c-.854-.017-2.079-.724-2.073-1.967.005-1.243-.006-5.962-.007-7.108-.001-1.098.845-2.099 2.062-2.111s10.761 0 11.922-.005c1.226-.004 2.071.945 2.088 2.071.017 1.125.1 6.191.076 7.291-.024 1.039-1.068 1.816-2.143 1.833s-1.56-.015-1.56-.015M8.5 12.2V9" style="fill:none;stroke:#fff;stroke-linejoin:round;stroke-linecap:round;stroke-width:2px"/><path d="M6.6 8.5h4.9l2 3.7 2-3.7" style="fill:none;stroke:#fff;stroke-linejoin:round;stroke-linecap:round;stroke-width:2px"/></svg>