<svg xmlns="http://www.w3.org/2000/svg" viewBox="0 0 24 24"><path fill="#fff" fill-rule="evenodd" d="M7.087 3.392 8.28 5.186q-1.102.03-2.35.073a3.71 3.71 0 0 0-3.543 3.184q-.242 1.695-.242 4.141 0 2.931.347 5.068a3.71 3.71 0 0 0 3.48 3.111c1.9.094 4.365.141 6.555.141a.687.687 0 1 0 0-1.375c-2.168 0-4.61-.046-6.486-.139a2.34 2.34 0 0 1-2.192-1.96q-.33-2.017-.33-4.846 0-2.356.229-3.946A2.34 2.34 0 0 1 5.98 6.633q3.635-.13 6.028-.131 2.394.003 6.029.131c1.13.04 2.07.884 2.23 2.005.153 1.059.206 2.451.206 4.022a.687.687 0 1 0 1.375 0c0-1.632-.057-3.087-.219-4.217a3.71 3.71 0 0 0-3.544-3.184q-1.413-.05-2.641-.081l1.262-1.757a1.008 1.008 0 0 0-1.637-1.177l-1.907 2.653a1 1 0 0 0-.126.236l-.908-.006h-.239q-.59.002-1.25.01a1 1 0 0 0-.107-.21L8.765 2.273a1.008 1.008 0 0 0-1.678 1.118zM11.2 9.597h1.32a8.5 8.5 0 0 0-.825-1.364l1.045-.352c.308.44.583.902.814 1.408l-.693.308h1.518c.308-.56.572-1.166.814-1.804l1.09.385a8.6 8.6 0 0 1-.749 1.42h1.276v3.44a5.01 5.01 0 0 0-3.575 3.115h-2.43v-1.078h2.617v-.847H11.2zm-2.706 2.08-.154 1.484h2.2c0 1.892-.066 3.157-.176 3.795-.132.638-.693.99-1.694 1.056-.267 0-.533-.019-.818-.04l-.062-.004-.297-1.067c.286.033.594.055.902.055.55 0 .858-.176.935-.528s.121-1.11.121-2.277H7.175l.308-3.454h1.86v-1.43h-2.07v-.979h3.201v3.388zm7.304.736v.858h-1.254v-.858H15.8zm-2.376.858v-.858h-1.199v.858zm0-1.804h-1.199v-.902h1.2zm1.122-.902v.902H15.8v-.902h-1.254zm7.517 7.497a4 4 0 1 1-8 0 4 4 0 0 1 8 0m-6.736 0a2.737 2.737 0 0 0 4.148 2.345l-3.757-3.757a2.7 2.7 0 0 0-.391 1.412m5.081 1.412a2.737 2.737 0 0 0-3.758-3.757z" clip-rule="evenodd"/></svg>