<svg xmlns="http://www.w3.org/2000/svg" width="200" height="200" class="icon" viewBox="0 0 1024 1024"><path fill="#fff" d="m269.44 256 23.296-75.381A74.67 74.67 0 0 1 364.075 128h295.85a74.67 74.67 0 0 1 71.339 52.619L754.56 256h66.773c64.8 0 117.334 52.533 117.334 117.333V800c0 64.8-52.534 117.333-117.334 117.333H202.667c-64.8 0-117.334-52.533-117.334-117.333V373.333c0-64.8 52.534-117.333 117.334-117.333zm23.605 64h-90.378a53.333 53.333 0 0 0-53.334 53.333V800a53.333 53.333 0 0 0 53.334 53.333h618.666A53.333 53.333 0 0 0 874.667 800V373.333A53.333 53.333 0 0 0 821.333 320h-90.378a32 32 0 0 1-30.571-22.55l-30.272-97.93a10.67 10.67 0 0 0-10.187-7.52h-295.85a10.67 10.67 0 0 0-10.187 7.52l-30.272 97.92a32 32 0 0 1-30.57 22.56M512 725.333c-88.363 0-160-71.637-160-160 0-88.362 71.637-160 160-160s160 71.638 160 160c0 88.363-71.637 160-160 160m0-64a96 96 0 1 0 0-192 96 96 0 0 0 0 192" style="--darkreader-inline-fill:var(--darkreader-background-8a8a8a, #fff)"/></svg>